<?xml version="1.0" encoding="UTF-8" standalone="no"?>
<!-- Created with Inkscape (http://www.inkscape.org/) -->

<svg
   xmlns:dc="http://purl.org/dc/elements/1.1/"
   xmlns:cc="http://creativecommons.org/ns#"
   xmlns:rdf="http://www.w3.org/1999/02/22-rdf-syntax-ns#"
   xmlns:svg="http://www.w3.org/2000/svg"
   xmlns="http://www.w3.org/2000/svg"
   xmlns:xlink="http://www.w3.org/1999/xlink"
   xmlns:sodipodi="http://sodipodi.sourceforge.net/DTD/sodipodi-0.dtd"
   xmlns:inkscape="http://www.inkscape.org/namespaces/inkscape"
   width="30"
   height="30"
   viewBox="0 0 30 30.000001"
   id="svg2"
   version="1.1"
   inkscape:version="0.91 r13725"
   sodipodi:docname="btn_rect_square.svg"
   inkscape:export-filename="/home/erik/PhpstormProjects/steppy/modules/instruments/electribe/btn_rect_square.png"
   inkscape:export-xdpi="90"
   inkscape:export-ydpi="90">
  <defs
     id="defs4">
    <linearGradient
       inkscape:collect="always"
       id="linearGradient4321">
      <stop
         style="stop-color:#797979;stop-opacity:1"
         offset="0"
         id="stop4323" />
      <stop
         style="stop-color:#ffffff;stop-opacity:1"
         offset="1"
         id="stop4325" />
    </linearGradient>
    <linearGradient
       inkscape:collect="always"
       xlink:href="#linearGradient4321"
       id="linearGradient5777"
       x1="14"
       y1="26"
       x2="6"
       y2="11.000001"
       gradientUnits="userSpaceOnUse"
       gradientTransform="matrix(0,1,1,0,-5.025391,1022.4436)" />
    <filter
       inkscape:collect="always"
       style="color-interpolation-filters:sRGB"
       id="filter6419"
       x="-0.06532"
       width="1.13064"
       y="-0.122475"
       height="1.2449501">
      <feGaussianBlur
         inkscape:collect="always"
         stdDeviation="0.8165"
         id="feGaussianBlur6421" />
    </filter>
    <filter
       inkscape:collect="always"
       style="color-interpolation-filters:sRGB"
       id="filter6565"
       x="-0.084150001"
       width="1.1683"
       y="-0.20196001"
       height="1.4039201">
      <feGaussianBlur
         inkscape:collect="always"
         stdDeviation="0.84149998"
         id="feGaussianBlur6567" />
    </filter>
  </defs>
  <sodipodi:namedview
     id="base"
     pagecolor="#d47354"
     bordercolor="#666666"
     borderopacity="1.0"
     inkscape:pageopacity="0"
     inkscape:pageshadow="2"
     inkscape:zoom="14.481547"
     inkscape:cx="7.6051001"
     inkscape:cy="15.655976"
     inkscape:document-units="px"
     inkscape:current-layer="layer2"
     showgrid="true"
     units="px"
     showguides="false"
     inkscape:guide-bbox="true"
     inkscape:window-width="1920"
     inkscape:window-height="1024"
     inkscape:window-x="0"
     inkscape:window-y="0"
     inkscape:window-maximized="1">
    <sodipodi:guide
       position="20,32.857144"
       orientation="1,0"
       id="guide4145"
       inkscape:label=""
       inkscape:color="rgb(0,0,255)" />
    <sodipodi:guide
       position="20,20"
       orientation="-0.8660254,0.5"
       id="guide4147"
       inkscape:label=""
       inkscape:color="rgb(0,0,255)" />
    <sodipodi:guide
       position="56.607143,20"
       orientation="0,1"
       id="guide4149"
       inkscape:label=""
       inkscape:color="rgb(0,0,255)" />
    <sodipodi:guide
       position="20,20"
       orientation="-0.8660254,-0.5"
       id="guide4151"
       inkscape:label=""
       inkscape:color="rgb(0,0,255)" />
    <sodipodi:guide
       position="44.910714,40.000001"
       orientation="0,1"
       id="guide4153"
       inkscape:label=""
       inkscape:color="rgb(0,0,255)" />
    <sodipodi:guide
       position="47.767857,37.000001"
       orientation="0,1"
       id="guide4155"
       inkscape:label=""
       inkscape:color="rgb(0,0,255)" />
    <inkscape:grid
       type="xygrid"
       id="grid4220"
       units="px"
       spacingx="1"
       spacingy="1"
       visible="true"
       enabled="true" />
    <sodipodi:guide
       position="20,20"
       orientation="-0.5,0.8660254"
       id="guide4266"
       inkscape:label=""
       inkscape:color="rgb(0,0,255)" />
    <sodipodi:guide
       position="20,20"
       orientation="0.5,0.8660254"
       id="guide4268"
       inkscape:label=""
       inkscape:color="rgb(0,0,255)" />
  </sodipodi:namedview>
  <metadata
     id="metadata7">
    <rdf:RDF>
      <cc:Work
         rdf:about="">
        <dc:format>image/svg+xml</dc:format>
        <dc:type
           rdf:resource="http://purl.org/dc/dcmitype/StillImage" />
        <dc:title></dc:title>
      </cc:Work>
    </rdf:RDF>
  </metadata>
  <g
     inkscape:label="achtergrond"
     inkscape:groupmode="layer"
     id="layer1"
     transform="translate(0,-1022.3622)"
     style="display:inline">
    <path
       sodipodi:nodetypes="sssssssss"
       inkscape:connector-curvature="0"
       style="display:inline;opacity:1;fill:#000000;fill-opacity:0.39607843;stroke:none;stroke-width:1;stroke-linecap:round;stroke-linejoin:round;stroke-miterlimit:4;stroke-dasharray:none;stroke-dashoffset:0;stroke-opacity:1;filter:url(#filter6419)"
       d="m 20.553887,1025.329 c -2.954667,0 -5.333984,2.3793 -5.333984,5.334 l 0,7.6798 c 0,2.9547 2.379317,5.334 5.333984,5.334 l 10.14793,0 c 2.954667,0 5.333984,-2.3793 5.333984,-5.334 l 0,-7.6798 c 0,-2.9547 -2.379317,-5.334 -5.333984,-5.334 z"
       id="path6383"
       transform="matrix(0,-1,1,0,-1017.3186,1064.4462)" />
    <path
       id="path5768"
       d="m 5.0214844,1032.7776 c 0,-2.9547 2.379317,-5.334 5.3339836,-5.334 l 9.28711,0 c 2.954667,0 5.333984,2.3793 5.333984,5.334 l 0,9.1812 c 0,2.9547 -2.379317,5.334 -5.333984,5.334 l -9.28711,0 c -2.9546666,0 -5.3339836,-2.3793 -5.3339836,-5.334 z"
       style="display:inline;opacity:1;fill:url(#linearGradient5777);fill-opacity:1;stroke:none;stroke-width:1;stroke-linecap:round;stroke-linejoin:round;stroke-miterlimit:4;stroke-dasharray:none;stroke-dashoffset:0;stroke-opacity:1"
       inkscape:connector-curvature="0"
       sodipodi:nodetypes="sssssssss" />
  </g>
  <g
     inkscape:groupmode="layer"
     id="layer2"
     inkscape:label="rest"
     style="display:inline"
     transform="translate(0,-10)">
    <path
       style="opacity:1;fill:#000000;fill-opacity:0;stroke:none;stroke-width:1;stroke-linejoin:miter;stroke-miterlimit:4;stroke-dasharray:none;stroke-dashoffset:0;stroke-opacity:1"
       d="m 4,29.106792 0.949219,0 0,2 -0.945313,0 a 11,11 0 0 0 10.945312,10 11,11 0 0 0 11,-11 11,11 0 0 0 -11,-11.000001 A 11,11 0 0 0 4,29.106792 Z m 0.999999,0 a 10,10 0 0 1 3.9023444,-6.964844 l 0.03906,15.958985 a 10,10 0 0 1 -3.931638,-6.994141 l 0.939453,0 0,-2 -0.9492194,0 z m 4.9472664,9.658203 0.0059,-17.320312 a 10,10 0 0 1 12.6601556,2.238281 10,10 0 0 1 -0.0059,12.853516 10,10 0 0 1 -12.6601556,2.228515 z"
       id="circle4244"
       inkscape:connector-curvature="0" />
    <path
       style="fill:none;fill-rule:evenodd;stroke:#ffffff;stroke-width:1px;stroke-linecap:butt;stroke-linejoin:miter;stroke-opacity:1"
       d="m 20,-33.933703 0,-3"
       id="path4286"
       inkscape:connector-curvature="0"
       inkscape:transform-center-y="-18.466852" />
    <path
       style="opacity:1;fill:#000000;fill-opacity:0.72156863;stroke:none;stroke-width:1;stroke-linecap:round;stroke-linejoin:round;stroke-miterlimit:4;stroke-dasharray:none;stroke-dashoffset:0;stroke-opacity:1"
       d="m 4.9720609,29.734674 c 0,2.954667 2.379317,5.333984 5.3339831,5.333984 l 9.385362,0 c 2.954667,0 5.333984,-2.379317 5.333984,-5.333984 l 0,-9.319289 c 0,-2.954668 -2.379317,-5.333985 -5.333984,-5.333985 l -9.385362,0 c -2.9546661,0 -5.3339831,2.379317 -5.3339831,5.333985 z m 1,-0.332032 0,-8.655225 c 0,-2.585335 2.0806816,-4.666017 4.6660151,-4.666017 l 8.721298,0 c 2.585334,0 4.666016,2.080682 4.666016,4.666017 l 0,8.655225 c 0,2.585334 -2.080682,4.666016 -4.666016,4.666016 l -8.721298,0 c -2.5853335,0 -4.6660151,-2.080682 -4.6660151,-4.666016 z"
       id="rect5761"
       inkscape:connector-curvature="0"
       sodipodi:nodetypes="ssssssssssssssssss" />
    <rect
       ry="4.6666675"
       y="6"
       x="16.081396"
       height="18"
       width="18.000401"
       id="rect5763"
       style="opacity:1;fill:#000000;fill-opacity:0.04562737;stroke:none;stroke-width:1;stroke-linecap:round;stroke-linejoin:round;stroke-miterlimit:4;stroke-dasharray:none;stroke-dashoffset:0;stroke-opacity:1"
       transform="matrix(0,1,1,0,0,0)" />
    <rect
       style="opacity:1;fill:#b7b7b7;fill-opacity:1;stroke:none;stroke-width:1;stroke-linecap:round;stroke-linejoin:round;stroke-miterlimit:4;stroke-dasharray:none;stroke-dashoffset:0;stroke-opacity:1;filter:url(#filter6565)"
       id="rect6423"
       width="13.000397"
       height="14"
       x="18.999603"
       y="13.025391"
       ry="2.9999995"
       transform="matrix(0,-1,1,0,-5.025391,50.081401)" />
  </g>
</svg>
